<?xml version="1.0" encoding="utf-8"?>
<!-- Generator: Adobe Illustrator 25.3.1, SVG Export Plug-In . SVG Version: 6.00 Build 0)  -->
<!DOCTYPE svg PUBLIC "-//W3C//DTD SVG 1.1//EN" "http://www.w3.org/Graphics/SVG/1.1/DTD/svg11.dtd" [
	<!ENTITY ns_extend "http://ns.adobe.com/Extensibility/1.0/">
	<!ENTITY ns_ai "http://ns.adobe.com/AdobeIllustrator/10.0/">
	<!ENTITY ns_graphs "http://ns.adobe.com/Graphs/1.0/">
	<!ENTITY ns_vars "http://ns.adobe.com/Variables/1.0/">
	<!ENTITY ns_imrep "http://ns.adobe.com/ImageReplacement/1.0/">
	<!ENTITY ns_sfw "http://ns.adobe.com/SaveForWeb/1.0/">
	<!ENTITY ns_custom "http://ns.adobe.com/GenericCustomNamespace/1.0/">
	<!ENTITY ns_adobe_xpath "http://ns.adobe.com/XPath/1.0/">
]>
<svg version="1.1" id="레이어_1" xmlns:x="&ns_extend;" xmlns:i="&ns_ai;" xmlns:graph="&ns_graphs;"
	 xmlns="http://www.w3.org/2000/svg" xmlns:xlink="http://www.w3.org/1999/xlink" x="0px" y="0px" viewBox="0 0 240 31.5"
	 style="enable-background:new 0 0 240 31.5;" xml:space="preserve">
<style type="text/css">
	.st0{fill:#FFFFFF;}
</style>
<metadata>
	<sfw  xmlns="&ns_sfw;">
		<slices></slices>
		<sliceSourceBounds  bottomLeftOrigin="true" height="31.5" width="240" x="0" y="-3.7"></sliceSourceBounds>
	</sfw>
</metadata>
<g>
	<g>
		<path class="st0" d="M31.5,0l-2.2,0l0.6,0.2c0.5,0.2,0.9,0.5,1.3,0.8l0.5-1L31.5,0L31.5,0z"/>
		<path class="st0" d="M32.9,2.7L32.9,2.7L32.9,2.7l4.6,0c0.4,0,0.8-0.3,1-0.7l0.7-1.4C38.5,0.2,37.6,0,36.6,0h-4.2l-0.7,1.3
			C32.3,1.8,32.7,2.3,32.9,2.7z"/>
		<path class="st0" d="M39.5,2.8h2.3c-0.5-0.8-1.2-1.4-2-1.9l-0.6,1.2C39,2.5,39.1,2.8,39.5,2.8z"/>
		<path class="st0" d="M62.2,2.1L63.3,0h-4.2l-1.4,2.8h3.5C61.6,2.8,62,2.5,62.2,2.1z"/>
		<path class="st0" d="M63.1,2.8h3.4L67.9,0h-4l-1.1,2.1C62.6,2.5,62.8,2.8,63.1,2.8z"/>
		<path class="st0" d="M37.6,4.1c0.2-0.4,0.1-0.7-0.3-0.7h-4l2.3,4.5L37.6,4.1z"/>
		<path class="st0" d="M38.1,4.1l-2.3,4.4l1.3,2.5h4.1c0.4,0,0.8-0.3,1-0.7L43.9,7l-1.5-2.9l-0.4-0.7h-2.9
			C38.8,3.4,38.3,3.7,38.1,4.1z"/>
		<path class="st0" d="M43.1,11H46l-1.7-3.4l-1.4,2.7C42.6,10.6,42.8,11,43.1,11z"/>
		<path class="st0" d="M58,10.3l3.2-6.2c0.2-0.4,0.1-0.7-0.3-0.7h-3.5L53.5,11H57C57.4,11,57.8,10.6,58,10.3z"/>
		<path class="st0" d="M61.8,4.1l-3.2,6.2c-0.2,0.4-0.1,0.7,0.3,0.7h3.4l3.9-7.6h-3.4C62.4,3.4,62,3.7,61.8,4.1z"/>
		<path class="st0" d="M40.9,11.6h-3.5l2.1,4l1.7-3.3C41.4,11.9,41.3,11.6,40.9,11.6z"/>
		<path class="st0" d="M41.8,12.3l-2,3.9l1.5,3h3.6c0.4,0,0.8-0.3,1-0.7l1.9-3.8l-1.6-3.1h-3.4C42.5,11.6,42,11.9,41.8,12.3z"/>
		<path class="st0" d="M46.8,19.2h6c0.4,0,0.8-0.3,1-0.7l3.2-6.2c0.2-0.4,0.1-0.7-0.3-0.7h-3.5l-3.4,6.7l-1.6-3.1l-1.7,3.2
			C46.3,18.8,46.4,19.2,46.8,19.2z"/>
		<path class="st0" d="M57.6,12.3l-3.2,6.2c-0.2,0.4-0.1,0.7,0.3,0.7h3.4l3.9-7.6h-3.4C58.2,11.6,57.8,11.9,57.6,12.3z"/>
		<path class="st0" d="M44.6,19.8h-2.9l0.4,0.7l1.4,2.8l1.5-2.8C45.1,20.1,44.9,19.8,44.6,19.8z"/>
		<path class="st0" d="M49.6,26.6l3.2-6.2c0.2-0.4,0.1-0.7-0.3-0.7h-6c-0.4,0-0.8,0.3-1,0.7l-1.7,3.4l1.6,3.1l0.2,0.4h3
			C48.9,27.3,49.4,27,49.6,26.6z"/>
		<path class="st0" d="M53.3,20.5l-3.2,6.2c-0.2,0.4-0.1,0.7,0.3,0.7h3.5l0.2-0.4l3.7-7.2h-3.4C54,19.8,53.5,20.1,53.3,20.5z"/>
		<path class="st0" d="M48.2,27.9h-2.4l0.7,1.4l0.2,0.5c0.2,0.3,0.5,0.6,0.8,0.9l1-2C48.8,28.3,48.6,27.9,48.2,27.9z"/>
		<path class="st0" d="M49.1,28.6L47.9,31c0.5,0.3,1.1,0.5,1.8,0.5c1.3,0,2.4-0.7,3-1.7c0.1-0.1,0.2-0.3,0.2-0.5l0.7-1.4h-3.5
			C49.8,27.9,49.3,28.3,49.1,28.6z"/>
		<path class="st0" d="M7.1,2.1L8.1,0H6.4H6.3c-2.1,0-4,1.1-5.1,2.8H6C6.4,2.8,6.9,2.5,7.1,2.1z"/>
		<path class="st0" d="M8,2.8h6c0.4,0,0.8-0.3,1-0.7L16,0H8.7L7.7,2.1C7.5,2.5,7.6,2.8,8,2.8z"/>
		<path class="st0" d="M15.8,2.8h6c0.4,0,0.8-0.3,1-0.7L23.9,0h-4.8h-2.5l-1.1,2.1C15.3,2.5,15.5,2.8,15.8,2.8z"/>
		<path class="st0" d="M23.7,2.8h6c0.4,0,0.8-0.3,1-0.7l0.4-0.7C30,0.5,28.7,0,27.3,0h-2.8l-1.1,2.1C23.2,2.5,23.4,2.8,23.7,2.8z"/>
		<path class="st0" d="M31.5,1.7l-0.2,0.4c-0.2,0.4-0.1,0.7,0.3,0.7h0.8C32.1,2.4,31.8,2,31.5,1.7z"/>
		<path class="st0" d="M2.9,10.3L6,4.1c0.2-0.4,0.1-0.7-0.3-0.7h-5C0.3,4.3,0,5.4,0,6.5V11h1.8C2.2,11,2.7,10.6,2.9,10.3z"/>
		<path class="st0" d="M9.4,7.5h2.8l1.8-3.4c0.2-0.4,0.1-0.7-0.3-0.7h-6c-0.4,0-0.8,0.3-1,0.7l-3.2,6.2C3.2,10.6,3.4,11,3.7,11h3.7
			V9.4C7.5,8.3,8.3,7.5,9.4,7.5z"/>
		<path class="st0" d="M21.8,4.1c0.2-0.4,0.1-0.7-0.3-0.7h-6c-0.4,0-0.8,0.3-1,0.7l-1.8,3.4h7.3L21.8,4.1z"/>
		<path class="st0" d="M23.9,7.5h0.5c1,0,1.8,0.9,1.8,1.9v1.3c0.1-0.1,0.3-0.3,0.3-0.4l3.2-6.2c0.2-0.4,0.1-0.7-0.3-0.7h-6
			c-0.4,0-0.8,0.3-1,0.7l-1.8,3.4h3H23.9z"/>
		<path class="st0" d="M32.7,3.4h-1.5c-0.4,0-0.8,0.3-1,0.7l-3.2,6.2C26.9,10.6,27,11,27.4,11h6c0.1,0,0.1,0,0.2,0V6.5
			C33.5,5.4,33.2,4.3,32.7,3.4z"/>
		<path class="st0" d="M1.8,12.3c0.2-0.4,0.1-0.7-0.3-0.7H0v4.3L1.8,12.3z"/>
		<path class="st0" d="M6.5,18.5L8,15.5c-0.3-0.3-0.5-0.8-0.5-1.3v-2.6h-4c-0.4,0-0.8,0.3-1,0.7L0,16.9v0.2c0,0,0,0,0,0v2.1h5.5
			C5.9,19.2,6.3,18.8,6.5,18.5z"/>
		<path class="st0" d="M8.4,15.9l-1.3,2.6c-0.2,0.4-0.1,0.7,0.3,0.7h6c0.4,0,0.8-0.3,1-0.7l1.2-2.3H9.4C9,16.1,8.7,16,8.4,15.9z"/>
		<path class="st0" d="M15,18.5c-0.2,0.4-0.1,0.7,0.3,0.7h6c0.4,0,0.8-0.3,1-0.7l1.2-2.3h-7.3L15,18.5z"/>
		<path class="st0" d="M24.3,16.1h-0.2l-1.2,2.3c-0.2,0.4-0.1,0.7,0.3,0.7h6c0.4,0,0.8-0.3,1-0.7l3.2-6.2c0.2-0.4,0.1-0.7-0.3-0.7
			h-6c-0.3,0-0.7,0.2-0.9,0.5v2.1C26.2,15.2,25.3,16.1,24.3,16.1z"/>
		<path class="st0" d="M33.5,13l-2.8,5.4c-0.2,0.4-0.1,0.7,0.3,0.7h2.1c0.2-0.7,0.3-1.3,0.3-2.1V13z"/>
		<path class="st0" d="M2.3,26.6l3.2-6.2c0.2-0.4,0.1-0.7-0.3-0.7H0v7.6h1.3C1.6,27.3,2.1,27,2.3,26.6z"/>
		<path class="st0" d="M13.1,19.8h-6c-0.4,0-0.8,0.3-1,0.7l-3.2,6.2c-0.2,0.4-0.1,0.7,0.3,0.7h4.3v-3.7h4.3l1.6-3.2
			C13.6,20.1,13.4,19.8,13.1,19.8z"/>
		<path class="st0" d="M20.9,19.8h-6c-0.4,0-0.8,0.3-1,0.7l-1.6,3.2h7.3l1.6-3.2C21.4,20.1,21.3,19.8,20.9,19.8z"/>
		<path class="st0" d="M28.8,19.8h-6c-0.4,0-0.8,0.3-1,0.7l-1.6,3.2h7.1c0.1,0,0.2,0,0.2,0l1.6-3.1C29.3,20.1,29.2,19.8,28.8,19.8z"
			/>
		<path class="st0" d="M29.7,20.5l-1.6,3.1c1.4-0.2,2.7-0.9,3.7-1.9l0,0c0.5-0.5,0.9-1.2,1.2-1.8h-2.2
			C30.4,19.8,29.9,20.1,29.7,20.5z"/>
		<path class="st0" d="M1,27.9H0v3.2l1.3-2.5C1.5,28.3,1.3,27.9,1,27.9z"/>
		<path class="st0" d="M1.9,28.6l-1.5,2.8h7.1h0v-3.5H2.9C2.5,27.9,2,28.3,1.9,28.6z"/>
	</g>
	<g>
		<path class="st0" d="M82.8,3.6h8c5.4,0,9.5,1.9,9.5,7.6c0,5.5-4.2,8-9.4,8h-3.2v8.6h-4.9V3.6z M90.6,15.4c3.3,0,5-1.4,5-4.2
			c0-2.8-1.8-3.8-5.1-3.8h-2.8v8H90.6z"/>
		<path class="st0" d="M101.5,3.6h5.1l3.2,11.8c0.8,2.7,1.2,5.1,2,7.8h0.2c0.8-2.7,1.3-5.2,2.1-7.8l3.2-11.8h4.9l-7.5,24.3H109
			L101.5,3.6z"/>
		<path class="st0" d="M132.4,3.6h4.9v10.5h0.1l8-10.5h5.4l-7.4,9.6l8.7,14.7h-5.4L140.5,17l-3.2,4.1v6.8h-4.9V3.6z"/>
		<path class="st0" d="M152.8,15.6c0-7.9,4.4-12.5,10.9-12.5c6.4,0,10.9,4.6,10.9,12.5s-4.4,12.7-10.9,12.7
			C157.2,28.3,152.8,23.5,152.8,15.6z M169.5,15.6c0-5.2-2.3-8.3-5.9-8.3c-3.6,0-5.9,3.1-5.9,8.3c0,5.2,2.3,8.5,5.9,8.5
			C167.2,24.1,169.5,20.8,169.5,15.6z"/>
		<path class="st0" d="M192.5,27.9l-5-9.2h-3.4v9.2h-4.9V3.6h8.5c5.1,0,9.1,1.8,9.1,7.4c0,3.6-1.8,5.9-4.6,7l5.7,9.9H192.5z
			 M184.1,14.9h3.2c3.1,0,4.8-1.3,4.8-3.9c0-2.6-1.7-3.5-4.8-3.5h-3.2V14.9z"/>
		<path class="st0" d="M201.6,3.6h14.9v4h-10v5.6h8.5v4.1h-8.5v6.5h10.4v4.1h-15.3V3.6z"/>
		<path class="st0" d="M233.2,21.6h-7.9l-1.7,6.2h-4.9l7.8-24.3h5.7l7.8,24.3h-5.1L233.2,21.6z M232.2,17.9l-0.7-2.7
			c-0.8-2.5-1.4-5.3-2.1-7.9h-0.1c-0.6,2.7-1.3,5.4-2.1,7.9l-0.7,2.7H232.2z"/>
	</g>
</g>
</svg>
