<?xml version="1.0" encoding="utf-8"?>
<!-- Generator: Adobe Illustrator 25.3.1, SVG Export Plug-In . SVG Version: 6.00 Build 0)  -->
<!DOCTYPE svg PUBLIC "-//W3C//DTD SVG 1.1//EN" "http://www.w3.org/Graphics/SVG/1.1/DTD/svg11.dtd" [
	<!ENTITY ns_extend "http://ns.adobe.com/Extensibility/1.0/">
	<!ENTITY ns_ai "http://ns.adobe.com/AdobeIllustrator/10.0/">
	<!ENTITY ns_graphs "http://ns.adobe.com/Graphs/1.0/">
	<!ENTITY ns_vars "http://ns.adobe.com/Variables/1.0/">
	<!ENTITY ns_imrep "http://ns.adobe.com/ImageReplacement/1.0/">
	<!ENTITY ns_sfw "http://ns.adobe.com/SaveForWeb/1.0/">
	<!ENTITY ns_custom "http://ns.adobe.com/GenericCustomNamespace/1.0/">
	<!ENTITY ns_adobe_xpath "http://ns.adobe.com/XPath/1.0/">
]>
<svg version="1.1" id="레이어_1" xmlns:x="&ns_extend;" xmlns:i="&ns_ai;" xmlns:graph="&ns_graphs;"
	 xmlns="http://www.w3.org/2000/svg" xmlns:xlink="http://www.w3.org/1999/xlink" x="0px" y="0px" viewBox="0 0 62 28.6"
	 style="enable-background:new 0 0 62 28.6;" xml:space="preserve">
<style type="text/css">
	.st0{fill:#E80707;}
	.st1{fill:#002093;}
</style>
<metadata>
	<sfw  xmlns="&ns_sfw;">
		<slices></slices>
		<sliceSourceBounds  bottomLeftOrigin="true" height="28.6" width="61.7" x="0.1" y="-1"></sliceSourceBounds>
	</sfw>
</metadata>
<g>
	<path class="st0" d="M28.8,0l-2,0l0.5,0.2c0.4,0.2,0.9,0.4,1.2,0.7L29,0L28.8,0L28.8,0z"/>
	<path class="st0" d="M30.1,2.5L30.1,2.5L30.1,2.5l4.2,0c0.3,0,0.8-0.3,0.9-0.6l0.7-1.3C35.1,0.2,34.3,0,33.4,0h-3.8l-0.6,1.2
		C29.5,1.6,29.9,2.1,30.1,2.5z"/>
	<path class="st0" d="M36,2.5h2.1c-0.5-0.7-1.1-1.3-1.8-1.7l-0.5,1.1C35.6,2.2,35.7,2.5,36,2.5z"/>
	<path class="st0" d="M56.7,1.9l1-1.9h-3.8l-1.3,2.5h3.2C56.1,2.5,56.5,2.2,56.7,1.9z"/>
	<path class="st0" d="M57.5,2.5h3.1L61.9,0h-3.7l-1,1.9C57,2.2,57.2,2.5,57.5,2.5z"/>
	<path class="st0" d="M34.3,3.7c0.2-0.4,0.1-0.6-0.3-0.6h-3.6l2.1,4.1L34.3,3.7z"/>
	<path class="st0" d="M34.8,3.7l-2.1,4l1.2,2.3h3.7c0.3,0,0.8-0.3,0.9-0.6l1.5-3l-1.3-2.6l-0.3-0.7h-2.6C35.4,3.1,35,3.3,34.8,3.7z"
		/>
	<path class="st0" d="M39.4,10h2.6l-1.6-3.1l-1.3,2.5C38.9,9.7,39,10,39.4,10z"/>
	<path class="st0" d="M52.9,9.3l2.9-5.6c0.2-0.4,0.1-0.6-0.3-0.6h-3.2L48.7,10h3.2C52.3,10,52.7,9.7,52.9,9.3z"/>
	<path class="st0" d="M56.3,3.7l-2.9,5.6c-0.2,0.4-0.1,0.6,0.3,0.6h3.1l3.5-6.9h-3.1C56.9,3.1,56.5,3.3,56.3,3.7z"/>
	<path class="st0" d="M37.3,10.5h-3.2l1.9,3.7l1.6-3C37.8,10.8,37.7,10.5,37.3,10.5z"/>
	<path class="st0" d="M38.1,11.1l-1.8,3.5l1.4,2.7h3.2c0.3,0,0.8-0.3,0.9-0.6l1.8-3.4l-1.4-2.8h-3.1C38.7,10.5,38.3,10.8,38.1,11.1z
		"/>
	<path class="st0" d="M42.7,17.4h5.4c0.3,0,0.8-0.3,0.9-0.6l2.9-5.6c0.2-0.4,0.1-0.6-0.3-0.6h-3.2l-3.1,6.1l-1.4-2.8l-1.5,2.9
		C42.2,17.1,42.3,17.4,42.7,17.4z"/>
	<path class="st0" d="M52.5,11.1l-2.9,5.6c-0.2,0.4-0.1,0.6,0.3,0.6H53l3.5-6.9h-3.1C53.1,10.5,52.6,10.8,52.5,11.1z"/>
	<path class="st0" d="M40.7,18H38l0.3,0.6l1.3,2.6l1.3-2.6C41.1,18.2,41,18,40.7,18z"/>
	<path class="st0" d="M45.2,24.2l2.9-5.6c0.2-0.4,0.1-0.6-0.3-0.6h-5.4c-0.3,0-0.8,0.3-0.9,0.6l-1.6,3.1l1.4,2.8l0.2,0.4h2.8
		C44.6,24.9,45,24.6,45.2,24.2z"/>
	<path class="st0" d="M48.6,18.6l-2.9,5.6c-0.2,0.4-0.1,0.6,0.3,0.6h3.1l0.2-0.4l3.3-6.5h-3.1C49.2,18,48.8,18.2,48.6,18.6z"/>
	<path class="st0" d="M44,25.4h-2.2l0.6,1.3l0.2,0.4c0.2,0.3,0.4,0.6,0.7,0.8l0.9-1.8C44.4,25.7,44.3,25.4,44,25.4z"/>
	<path class="st0" d="M44.8,26l-1.1,2.1c0.5,0.3,1,0.5,1.6,0.5c1.1,0,2.1-0.6,2.7-1.5c0.1-0.1,0.2-0.3,0.2-0.4l0.6-1.3h-3.2
		C45.4,25.4,45,25.7,44.8,26z"/>
	<path class="st1" d="M6.6,1.9l1-1.9H5.9H5.8C3.9,0,2.2,1,1.2,2.5h4.5C6,2.5,6.4,2.2,6.6,1.9z"/>
	<path class="st1" d="M7.4,2.5h5.4c0.3,0,0.8-0.3,0.9-0.6l1-1.9H8.1l-1,1.9C6.9,2.2,7,2.5,7.4,2.5z"/>
	<path class="st1" d="M14.5,2.5H20c0.3,0,0.8-0.3,0.9-0.6l1-1.9h-4.4h-2.3l-1,1.9C14.1,2.2,14.2,2.5,14.5,2.5z"/>
	<path class="st1" d="M21.7,2.5h5.4c0.3,0,0.8-0.3,0.9-0.6l0.3-0.6c-1-0.8-2.2-1.2-3.5-1.2h-2.5l-1,1.9C21.2,2.2,21.4,2.5,21.7,2.5z
		"/>
	<path class="st1" d="M28.7,1.6l-0.2,0.3c-0.2,0.4-0.1,0.6,0.3,0.6h0.7C29.3,2.2,29.1,1.8,28.7,1.6z"/>
	<path class="st1" d="M2.7,9.3l2.9-5.6c0.2-0.4,0.1-0.6-0.3-0.6H0.8C0.4,3.9,0.1,4.9,0.1,5.9v4h1.7C2.1,10,2.6,9.7,2.7,9.3z"/>
	<path class="st1" d="M8.7,6.8h2.5l1.6-3.1c0.2-0.4,0.1-0.6-0.3-0.6H7.1c-0.3,0-0.8,0.3-0.9,0.6L3.3,9.3C3.1,9.7,3.2,10,3.5,10h3.4
		V8.6C7,7.6,7.7,6.8,8.7,6.8z"/>
	<path class="st1" d="M20,3.7c0.2-0.4,0.1-0.6-0.3-0.6h-5.4c-0.3,0-0.8,0.3-0.9,0.6l-1.6,3.1h6.6L20,3.7z"/>
	<path class="st1" d="M21.9,6.8h0.4c0.9,0,1.6,0.8,1.6,1.7v1.2c0.1-0.1,0.2-0.2,0.3-0.4l2.9-5.6c0.2-0.4,0.1-0.6-0.3-0.6h-5.4
		c-0.3,0-0.8,0.3-0.9,0.6l-1.6,3.1h2.7H21.9z"/>
	<path class="st1" d="M29.9,3.1h-1.3c-0.3,0-0.8,0.3-0.9,0.6l-2.9,5.6C24.6,9.7,24.7,10,25,10h5.4c0.1,0,0.1,0,0.2,0v-4
		C30.6,4.9,30.4,3.9,29.9,3.1z"/>
	<path class="st1" d="M1.8,11.1c0.2-0.4,0.1-0.6-0.3-0.6H0.1v3.9L1.8,11.1z"/>
	<path class="st1" d="M6.1,16.8l1.4-2.7c-0.3-0.3-0.5-0.7-0.5-1.2v-2.4H3.3c-0.3,0-0.8,0.3-0.9,0.6l-2.2,4.2v0.1c0,0,0,0,0,0v1.9h5
		C5.5,17.4,5.9,17.1,6.1,16.8z"/>
	<path class="st1" d="M7.8,14.4l-1.2,2.4c-0.2,0.4-0.1,0.6,0.3,0.6h5.4c0.3,0,0.8-0.3,0.9-0.6l1.1-2.1H8.7
		C8.3,14.7,8.1,14.6,7.8,14.4z"/>
	<path class="st1" d="M13.7,16.8c-0.2,0.4-0.1,0.6,0.3,0.6h5.4c0.3,0,0.8-0.3,0.9-0.6l1.1-2.1h-6.6L13.7,16.8z"/>
	<path class="st1" d="M22.2,14.7H22l-1.1,2.1c-0.2,0.4-0.1,0.6,0.3,0.6h5.4c0.3,0,0.8-0.3,0.9-0.6l2.9-5.6c0.2-0.4,0.1-0.6-0.3-0.6
		h-5.4c-0.3,0-0.6,0.2-0.8,0.5v1.9C23.9,13.9,23.1,14.7,22.2,14.7z"/>
	<path class="st1" d="M30.6,11.8l-2.5,4.9c-0.2,0.4-0.1,0.6,0.3,0.6h2c0.2-0.6,0.3-1.2,0.3-1.9V11.8z"/>
	<path class="st1" d="M2.2,24.2l2.9-5.6C5.3,18.2,5.2,18,4.8,18H0.1v6.9h1.2C1.6,24.9,2,24.6,2.2,24.2z"/>
	<path class="st1" d="M12,18H6.6c-0.3,0-0.8,0.3-0.9,0.6l-2.9,5.6c-0.2,0.4-0.1,0.6,0.3,0.6h3.9v-3.4h3.9l1.5-2.9
		C12.5,18.2,12.3,18,12,18z"/>
	<path class="st1" d="M19.2,18h-5.4c-0.3,0-0.8,0.3-0.9,0.6l-1.5,2.9H18l1.5-2.9C19.6,18.2,19.5,18,19.2,18z"/>
	<path class="st1" d="M26.3,18h-5.4c-0.3,0-0.8,0.3-0.9,0.6l-1.5,2.9h6.4c0.1,0,0.1,0,0.2,0l1.5-2.9C26.8,18.2,26.7,18,26.3,18z"/>
	<path class="st1" d="M27.1,18.6l-1.4,2.8c1.3-0.2,2.5-0.8,3.3-1.7l0,0c0.4-0.5,0.8-1.1,1.1-1.7h-2C27.7,18,27.3,18.2,27.1,18.6z"/>
	<path class="st1" d="M1,25.4H0.1v2.9L1.3,26C1.5,25.7,1.3,25.4,1,25.4z"/>
	<path class="st1" d="M1.8,26l-1.3,2.6h6.4h0v-3.2H2.8C2.4,25.4,2,25.7,1.8,26z"/>
</g>
</svg>
